<svg xmlns="http://www.w3.org/2000/svg" viewBox="0 0 1600 760" preserveAspectRatio="xMidYMid slice">
  <defs>
    <linearGradient id="bgw" x1="0" y1="0" x2="0" y2="1">
      <stop offset="0" stop-color="#31364f"/>
      <stop offset="1" stop-color="#171a2e"/>
    </linearGradient>
  </defs>
  <rect width="1600" height="760" fill="url(#bgw)"/>
  <rect y="620" width="1600" height="140" fill="#101223"/>
  <g fill="#3d4266">
    <rect x="120" y="220" width="34" height="400"/>
    <rect x="470" y="220" width="34" height="400"/>
    <rect x="820" y="220" width="34" height="400"/>
    <rect x="1170" y="220" width="34" height="400"/>
    <rect x="1500" y="220" width="34" height="400"/>
    <rect x="120" y="300" width="1414" height="14"/>
    <rect x="120" y="430" width="1414" height="14"/>
    <rect x="120" y="560" width="1414" height="14"/>
  </g>
  <g fill="#535b7d">
    <rect x="190" y="330" width="90" height="86"/>
    <rect x="300" y="330" width="90" height="86"/>
    <rect x="540" y="330" width="90" height="86"/>
    <rect x="890" y="330" width="90" height="86"/>
    <rect x="1240" y="330" width="90" height="86"/>
    <rect x="190" y="460" width="90" height="86"/>
    <rect x="650" y="460" width="90" height="86"/>
    <rect x="1000" y="460" width="90" height="86"/>
    <rect x="1350" y="460" width="90" height="86"/>
  </g>
  <g fill="#ffdf00">
    <rect x="650" y="330" width="90" height="86"/>
    <rect x="1000" y="204" width="90" height="86"/>
    <rect x="300" y="460" width="90" height="86"/>
    <rect x="1240" y="460" width="90" height="86"/>
  </g>
  <g fill="#8a92b3">
    <rect x="540" y="204" width="90" height="86"/>
    <rect x="890" y="460" width="90" height="86"/>
  </g>
  <g opacity=".85">
    <rect x="700" y="586" width="150" height="34" rx="4" fill="#ffdf00"/>
    <rect x="712" y="552" width="96" height="34" rx="4" fill="#e2e3e5"/>
    <circle cx="730" cy="628" r="12" fill="#101223" stroke="#8a92b3" stroke-width="4"/>
    <circle cx="820" cy="628" r="12" fill="#101223" stroke="#8a92b3" stroke-width="4"/>
  </g>
</svg>
